<?xml version="1.0" encoding="UTF-8"?><svg id="Layer_1" xmlns="http://www.w3.org/2000/svg" xmlns:xlink="http://www.w3.org/1999/xlink" viewBox="0 0 226 226"><defs><style>.cls-1{clip-path:url(#clippath-20);}.cls-2{clip-path:url(#clippath-11);}.cls-3{clip-path:url(#clippath-16);}.cls-4{fill:#fff;}.cls-5{clip-path:url(#clippath-2);}.cls-6{clip-path:url(#clippath-13);}.cls-7{clip-path:url(#clippath-25);}.cls-8{clip-path:url(#clippath-15);}.cls-9{clip-path:url(#clippath-6);}.cls-10{clip-path:url(#clippath-7);}.cls-11{clip-path:url(#clippath-21);}.cls-12{clip-path:url(#clippath-1);}.cls-13{clip-path:url(#clippath-4);}.cls-14{clip-path:url(#clippath-12);}.cls-15{clip-path:url(#clippath-24);}.cls-16{clip-path:url(#clippath-22);}.cls-17{clip-path:url(#clippath-9);}.cls-18{clip-path:url(#clippath);}.cls-19{fill:none;}.cls-20{clip-path:url(#clippath-19);}.cls-21{clip-path:url(#clippath-3);}.cls-22{clip-path:url(#clippath-8);}.cls-23{clip-path:url(#clippath-18);}.cls-24{clip-path:url(#clippath-14);}.cls-25{clip-path:url(#clippath-17);}.cls-26{clip-path:url(#clippath-5);}.cls-27{fill:#4f2683;}.cls-28{clip-path:url(#clippath-10);}.cls-29{clip-path:url(#clippath-23);}</style><clipPath id="clippath"><rect class="cls-19" x="53" y="43.69" width="120" height="138.61"/></clipPath><clipPath id="clippath-1"><rect class="cls-19" x="53" y="43.69" width="120" height="138.61"/></clipPath><clipPath id="clippath-2"><rect class="cls-19" x="53" y="43.69" width="120" height="138.61"/></clipPath><clipPath id="clippath-3"><rect class="cls-19" x="53" y="43.69" width="120" height="138.61"/></clipPath><clipPath id="clippath-4"><rect class="cls-19" x="53" y="43.69" width="120" height="138.61"/></clipPath><clipPath id="clippath-5"><rect class="cls-19" x="53" y="43.69" width="120" height="138.61"/></clipPath><clipPath id="clippath-6"><rect class="cls-19" x="53" y="43.69" width="120" height="138.61"/></clipPath><clipPath id="clippath-7"><rect class="cls-19" x="53" y="43.69" width="120" height="138.61"/></clipPath><clipPath id="clippath-8"><rect class="cls-19" x="53" y="43.69" width="120" height="138.61"/></clipPath><clipPath id="clippath-9"><rect class="cls-19" x="53" y="43.69" width="120" height="138.61"/></clipPath><clipPath id="clippath-10"><rect class="cls-19" x="53" y="43.69" width="120" height="138.61"/></clipPath><clipPath id="clippath-11"><rect class="cls-19" x="53" y="43.69" width="120" height="138.61"/></clipPath><clipPath id="clippath-12"><rect class="cls-19" x="53" y="43.69" width="120" height="138.61"/></clipPath><clipPath id="clippath-13"><rect class="cls-19" x="53" y="43.69" width="120" height="138.61"/></clipPath><clipPath id="clippath-14"><rect class="cls-19" x="53" y="43.69" width="120" height="138.61"/></clipPath><clipPath id="clippath-15"><rect class="cls-19" x="53" y="43.69" width="120" height="138.61"/></clipPath><clipPath id="clippath-16"><rect class="cls-19" x="53" y="43.69" width="120" height="138.61"/></clipPath><clipPath id="clippath-17"><rect class="cls-19" x="53" y="43.69" width="120" height="138.61"/></clipPath><clipPath id="clippath-18"><rect class="cls-19" x="53" y="43.69" width="120" height="138.61"/></clipPath><clipPath id="clippath-19"><rect class="cls-19" x="53" y="43.69" width="120" height="138.61"/></clipPath><clipPath id="clippath-20"><rect class="cls-19" x="53" y="43.69" width="120" height="138.61"/></clipPath><clipPath id="clippath-21"><rect class="cls-19" x="53" y="43.69" width="120" height="138.61"/></clipPath><clipPath id="clippath-22"><rect class="cls-19" x="53" y="43.69" width="120" height="138.61"/></clipPath><clipPath id="clippath-23"><rect class="cls-19" x="53" y="43.69" width="120" height="138.61"/></clipPath><clipPath id="clippath-24"><rect class="cls-19" x="53" y="43.69" width="120" height="138.61"/></clipPath><clipPath id="clippath-25"><rect class="cls-19" x="53" y="43.69" width="120" height="138.61"/></clipPath></defs><rect class="cls-27" width="226" height="226"/><g class="cls-18"><path class="cls-4" d="m106.45,170.14c-3.11,0-4.94-2.01-5.63-5h-.79l1.04,5.69c.35-.41.79-.53,1.23-.53.91,0,2.04.69,4.06.69,3.24,0,5.69-1.79,5.69-4.87,0-6.13-8.8-4.53-8.8-8.49,0-1.26.91-2.2,2.52-2.2,2.58,0,4.02,1.82,4.65,3.99h.75l-.88-4.87c-.28.35-.69.5-1.16.5-1.07,0-1.73-.44-3.36-.44-2.8,0-4.97,1.51-4.97,4.28,0,5.66,8.68,4.46,8.68,8.52-.03,1.85-1.35,2.74-3.02,2.74"/></g><g class="cls-12"><path class="cls-4" d="m96.2,178.38c0-.94-.66-1.41-1.82-1.41h-1.79v5.28h.5v-2.36h1.32l1.29,2.36h.57l-1.32-2.42c.75-.16,1.26-.6,1.26-1.45m-1.85,1.04h-1.23v-1.98h1.23c.88,0,1.38.25,1.38.97-.03.75-.53,1.01-1.38,1.01"/></g><g class="cls-5"><path class="cls-4" d="m92.01,170.04c-4.09,0-4.72-3.11-4.72-7.92v-.25h10.56c0-4.28-2.36-7.2-6.76-7.2-4.81,0-7.42,3.71-7.42,8.17s2.45,8.17,7.39,8.17c3.05,0,5.53-1.16,6.82-4.53l-.75-.25c-.88,2.11-2.39,3.8-5.12,3.8m-4.68-9.9c.19-2.36,1.04-4.65,3.52-4.65,2.67,0,3.24,2.07,3.3,4.28v1.1h-6.85c0-.22.03-.5.03-.72"/></g><g class="cls-21"><path class="cls-4" d="m63.31,180.39c0,.88-.44,1.48-1.41,1.48s-1.41-.63-1.41-1.51v-3.4h-.5v3.49c0,1.04.63,1.89,1.92,1.89s1.92-.85,1.92-1.89v-3.49h-.5v3.43Z"/></g><g class="cls-13"><path class="cls-4" d="m101.16,179.32c-1.1-.35-1.45-.57-1.45-1.13,0-.47.44-.85,1.13-.85s1.13.28,1.38.94l.44-.19c-.25-.69-.82-1.23-1.82-1.23s-1.63.6-1.63,1.35c0,.88.57,1.16,1.7,1.54,1.13.35,1.38.63,1.38,1.19,0,.6-.5.94-1.29.94s-1.29-.38-1.51-1.1l-.44.16c.25.85.94,1.38,1.95,1.38,1.07,0,1.82-.57,1.82-1.45-.03-.85-.57-1.23-1.67-1.57"/></g><g class="cls-26"><path class="cls-4" d="m86.48,148.51v-.79h-6.48v.79h2.86l-.75,2.61-4.5,13.71h-.06l-5.03-13.77-.88-2.55h3.21v-.79h-9.93v.79h2.77l1.63,4.4-4.12,11.92h-.06l-4.97-13.71-.88-2.61h2.86v-.79h-9.12v.79h2.2l1.16,3.08,7.11,19.37h.66s4.34-12.48,5.75-16.51l6.13,16.51h.69l6.44-19.59,1.01-2.86h2.3Z"/></g><g class="cls-9"><polygon class="cls-4" points="81.07 181.55 81.04 181.55 79.47 176.96 78.97 176.96 80.82 182.24 81.29 182.24 83.15 176.96 82.65 176.96 81.07 181.55"/></g><g class="cls-10"><polygon class="cls-4" points="70.89 181.3 70.89 181.3 67.96 176.96 67.43 176.96 67.43 182.24 67.9 182.24 67.9 177.75 67.93 177.75 70.92 182.24 71.36 182.24 71.36 176.96 70.89 176.96 70.89 181.3"/></g><g class="cls-22"><rect class="cls-4" x="106" y="176.96" width=".5" height="5.28"/></g><g class="cls-17"><rect class="cls-4" x="75.29" y="176.96" width=".5" height="5.28"/></g><g class="cls-28"><polygon class="cls-4" points="86.7 179.66 88.68 179.66 88.68 179.22 86.7 179.22 86.7 177.43 89.34 177.43 89.34 176.96 86.2 176.96 86.2 182.24 89.5 182.24 89.5 181.77 86.7 181.77 86.7 179.66"/></g><g class="cls-2"><path class="cls-4" d="m132.26,181.87c-1.04,0-1.7-.85-1.7-2.33,0-1.35.66-2.23,1.67-2.23.82,0,1.19.44,1.45,1.26l.47-.13c-.25-.97-.85-1.6-1.92-1.6-1.32,0-2.2,1.13-2.2,2.7,0,1.67.85,2.77,2.2,2.77,1.07,0,1.73-.66,1.98-1.7l-.47-.09c-.22.91-.69,1.35-1.48,1.35"/></g><g class="cls-14"><path class="cls-4" d="m154.39,176.93l-1.98,5.28h.5l.6-1.63h2.33l.6,1.63h.53l-1.98-5.28h-.6Zm-.72,3.24l1.01-2.7h.03l1.01,2.7h-2.04Z"/></g><g class="cls-6"><polygon class="cls-4" points="109.24 177.43 110.97 177.43 110.97 182.24 111.48 182.24 111.48 177.43 113.17 177.43 113.17 176.96 109.24 176.96 109.24 177.43"/></g><g class="cls-24"><polygon class="cls-4" points="148.57 181.3 148.57 181.3 145.65 176.96 145.11 176.96 145.11 182.24 145.59 182.24 145.59 177.75 145.62 177.75 148.6 182.24 149.04 182.24 149.04 176.96 148.57 176.96 148.57 181.3"/></g><g class="cls-8"><path class="cls-4" d="m153.45,156.81c0-1.26-.94-2.2-2.67-2.2-2.58,0-3.87,2.33-4.53,4.15h-.03v-4.28c-.5.41-1.04.82-2.42.82h-3.58v.79h2.74v13.74h-2.74v.79h8.65v-.79h-2.64v-6.76c0-3.62,1.76-7.51,4.06-7.51.16,0,.28.03.38.06-.38.31-.63.79-.63,1.32,0,1.01.75,1.7,1.7,1.7,1.04.03,1.73-.82,1.73-1.82"/></g><g class="cls-3"><path class="cls-4" d="m169.07,176.93l-1.98,5.28h.5l.6-1.63h2.33l.6,1.63h.53l-1.98-5.28h-.6Zm-.72,3.24l1.01-2.7h.03l1.01,2.7h-2.04Z"/></g><g class="cls-25"><path class="cls-4" d="m170.52,169.82v-10.69c0-3.18-1.57-4.56-4.68-4.56-2.61,0-4.53,1.29-5.5,3.43h-.06v-3.49c-.44.35-1.01.75-2.42.75h-3.36v.79h2.55v13.74h-2.74v.79h8.49v-.79h-2.52v-8.27c0-2.96,1.54-5.82,4.4-5.82,1.6,0,2.61.91,2.61,3.3v10.78h-2.52v.79h8.27v-.79h-2.52v.03h0Z"/></g><g class="cls-23"><path class="cls-4" d="m161.71,176.96h-1.32v5.28h1.32c1.7,0,2.61-.91,2.61-2.64s-.91-2.64-2.61-2.64m.06,4.84h-.91v-4.37h.88c1.32,0,2.07.66,2.07,2.17s-.72,2.2-2.04,2.2"/></g><g class="cls-20"><path class="cls-4" d="m139.14,176.93l-1.98,5.28h.5l.6-1.63h2.33l.6,1.63h.53l-1.98-5.28h-.6Zm-.72,3.24l1.01-2.7h.03l1.01,2.7h-2.04Z"/></g><g class="cls-1"><polygon class="cls-4" points="117.48 179.48 116 176.96 115.47 176.96 117.23 179.92 117.23 182.24 117.73 182.24 117.73 179.92 119.49 176.96 118.96 176.96 117.48 179.48"/></g><g class="cls-11"><path class="cls-4" d="m121.06,169.73c-1.23,0-1.7-.75-1.7-2.64v-11h3.9v-.79h-3.9v-5.25h-.69c-.44,3.4-2.14,5.12-5.22,5.44v.63h2.58v10.88c0,2.04.41,3.96,3.71,3.96,2.07,0,3.36-.97,4.02-2.2l.25-.5-.69-.31c-.44.88-1.1,1.79-2.26,1.79"/></g><g class="cls-16"><path class="cls-4" d="m139.02,166.49l-.75-.25c-.88,2.11-2.39,3.8-5.12,3.8-4.09,0-4.72-3.11-4.72-7.92v-.25h10.56c0-4.28-2.36-7.2-6.76-7.2-4.81,0-7.42,3.71-7.42,8.17s2.45,8.17,7.39,8.17c3.05,0,5.53-1.16,6.82-4.53m-10.56-6.35c.16-2.36,1.04-4.65,3.52-4.65,2.64,0,3.24,2.07,3.3,4.28v1.1h-6.85c0-.22.03-.5.03-.72"/></g><g class="cls-29"><path class="cls-4" d="m124.62,179.07c-.31,0-.53.22-.53.53s.22.53.53.53.53-.22.53-.53c0-.28-.22-.53-.53-.53"/></g><g class="cls-15"><path class="cls-4" d="m154.89,84.63v-35.56c-9.21-3.27-23.7-5.38-40.02-5.38s-30.28,2.11-39.49,5.38v35.56c0,5.41-.09,15.44,4.75,26.72,6,14.02,17.51,24.49,34.14,31.09l.85.35.85-.35c16.63-6.6,28.14-17.07,34.14-31.09,4.87-11.25,4.78-21.6,4.78-26.72"/></g><g class="cls-7"><path class="cls-27" d="m115.12,103.08l24.18,19.71c-5.97,6.98-14.05,12.51-24.18,16.6-10.12-4.06-18.2-9.62-24.18-16.6l24.18-19.71Zm36.56-29.8v-21.91c-9.18-2.86-22.73-4.46-36.85-4.46s-27.07,1.63-36.28,4.5v21.88h0l36.56,29.8,36.56-29.8h0Zm-35.53,18.3h-2.2l-.06-.16s-.57-1.04-2.96-1.04h-7.23v-11.7h.53v11.16h6.7c2.23,0,3.08.85,3.33,1.19h1.76c.25-.38,1.07-1.19,3.3-1.19h6.73v-11.13h.53v11.63h-7.29c-2.39,0-2.89,1.04-2.89,1.04l-.06.16-.19.03Zm-1.32-1.98v.57c-1.01-1.89-5.6-1.6-9.53-1.19v-10.85c4.9-.25,9.09-.94,9.53,1.19v9.71c-1.26-1.48-5-1.32-8.9-.94v.31c3.87-.35,7.95-.47,8.9,1.19m10.09-11.44v10.85c-3.9-.38-8.49-.69-9.53,1.19v-.57c.91-1.7,5.03-1.57,8.93-1.19v-.31c-3.93-.38-7.67-.57-8.93.94v-9.71c.44-2.14,4.62-1.45,9.53-1.19m21.66-4.87h-62.91l-3.99-4.24,8.02,2.67c-.66-2.01-2.48-2.7-3.68-4.4-.69-1.01-.94-2.01-.85-3.05.22.38.6.88,1.19,1.29.57.41,1.35.72,2.42.94,1.89.41,2.86,1.01,3.71,1.79l-4.12-7.36,7.07,4.56c-.28-2.11-1.73-3.21-2.45-5.12-.44-1.16-.41-2.2-.09-3.18.13.41.38,1.01.85,1.57.47.53,1.13,1.04,2.11,1.51,1.79.91,2.58,1.76,3.21,2.74l-2.17-8.24,5.69,6.13c.22-2.07-.88-3.49-1.1-5.53-.13-1.23.13-2.23.69-3.11,0,.44.09,1.07.44,1.73.31.63.85,1.29,1.67,1.98,1.57,1.35,2.11,2.42,2.45,3.58l-.06-8.65,3.96,7.33c.79-1.85-.03-3.55.25-5.6.19-1.23.72-2.14,1.48-2.86-.09.41-.16,1.07,0,1.76s.5,1.45,1.13,2.36c1.19,1.76,1.45,2.92,1.51,4.15h0l2.11-8.46,2.01,8.11c1.23-1.67.91-3.58,1.7-5.47.47-1.13,1.23-1.82,2.14-2.29-.19.38-.41.97-.44,1.73-.03.69.13,1.54.5,2.55.72,1.95.66,3.11.41,4.31l4.09-7.58-.06,8.33c1.6-1.26,1.7-3.24,2.96-4.87.75-.97,1.67-1.45,2.67-1.7-.28.31-.66.85-.85,1.54-.19.66-.25,1.51-.16,2.58.22,2.11-.13,3.24-.69,4.34h0l5.94-6.41-2.14,8.05c1.79-.85,2.42-2.55,4.02-3.8.97-.75,1.95-1.13,2.99-1.13-.35.25-.85.66-1.23,1.29-.38.6-.63,1.41-.79,2.48-.31,2.07-.91,3.11-1.73,4.02l.03.03,7.33-4.72-4.06,7.23c1.98-.28,2.92-1.85,4.78-2.67,1.13-.5,2.2-.63,3.21-.35-.41.16-.97.44-1.51.94-.5.5-.94,1.19-1.38,2.2-.82,1.92-1.67,2.77-2.67,3.46l.03.06,8.27-2.77-3.9,4.21Zm-39.93,11.82h.22c.66,0,.72-.06.72-.5v-1.89c0-.5-.09-.57-.5-.57h-.41v-.22c.44,0,.91.03,1.32.03.47,0,.91,0,1.32-.03v.22h-.41c-.44,0-.5.03-.5.57v1.89c0,.44.06.5.69.5h.22v.22c-.41,0-.82-.03-1.32-.03-.38,0-.88,0-1.32.03v-.22h-.03Zm4.65-2.07c-.5-.31-.85-.75-.85-1.32,0-.47.35-1.35,1.51-1.35.91,0,1.32.57,1.32,1.1s-.19.85-.94,1.19c.75.38,1.07.79,1.07,1.35,0,.82-.63,1.38-1.6,1.38-.88,0-1.41-.6-1.41-1.23-.06-.63.47-.97.91-1.13m1.29,1.35c0-.44-.19-.69-1.07-1.23-.38.22-.6.6-.6.97,0,.69.47,1.04.88,1.04.53,0,.79-.41.79-.79m-.47-1.82c.35-.25.57-.53.57-1.04,0-.57-.38-.91-.79-.91-.47,0-.75.38-.75.79,0,.47.28.79.97,1.16m4.59-.6h3.05l.06.06-2.48,4.87-.38-.09,1.98-4.06h-2.04l-.19.47h-.22l.22-1.26Zm4.72,1.07c-.5-.31-.85-.75-.85-1.32,0-.47.35-1.35,1.51-1.35.91,0,1.32.57,1.32,1.1s-.19.85-.94,1.19c.75.38,1.07.79,1.07,1.35,0,.82-.63,1.38-1.6,1.38-.88,0-1.41-.6-1.41-1.23-.03-.63.5-.97.91-1.13m1.29,1.35c0-.44-.19-.69-1.07-1.23-.38.22-.6.6-.6.97,0,.69.47,1.04.88,1.04.53,0,.79-.41.79-.79m-.47-1.82c.35-.25.57-.53.57-1.04,0-.57-.38-.91-.79-.91-.47,0-.75.38-.75.79,0,.47.31.79.97,1.16m4.68,20.28c0-5.19,4.21-9.4,9.37-9.4s9.34,4.24,9.34,9.43-4.21,9.4-9.37,9.4-9.34-4.34-9.34-9.43m13.64-6.41c.06.06.09.16.09.25,0,.22-.19.44-.41.44s-.44-.19-.44-.41.16-.38.35-.44l-.47-.75-.82.35c.09.06.16.19.16.31,0,.22-.19.44-.41.44s-.44-.19-.44-.41c0-.19.09-.35.25-.41-.25-.25-.79-.66-1.29-.82.38.72.6,1.6.6,2.33.53-.03,1.98.41,2.52.82.44-.66,1.13-1.29,1.85-1.54-.31-.13-1.04-.22-1.54-.16m-2.61,1.89c-.06,0-.13,0-.19-.03-.06,0-.09-.03-.09-.06-.03-.03-.06-.09-.22-.09-.25,0-.38.19-.38.28s0,.19.06.25c.03.06.13.09.19.09s.09,0,.16-.03h0c.09-.06.16-.16.19-.22,0-.03.13-.09.25-.09t.06-.03s-.03-.06-.03-.06m-2.55.13c-.06.09-.03.19-.03.25l.03.06c-.03.13-.03.31.03.57.03.16.16.19.41.19,0,.06,0,.13.03.19v.03c-.16.03-.28.06-.41.06-.38-.03-.63-.25-.57-.63,0-.06.03-.13.06-.19.03-.03,0-.06-.03-.06-.13-.06-.53.28-.6.72-.06.44.19.69.53.69.19,0,.47,0,.75-.13.47-.19,1.04-.25,1.35.09-.25-.03-.91,0-1.1.03-.28.06-.41.63-.09.66.25,0,1.13-.03,1.16-.03-.09.38-.66.88-1.23.97-.35-.13-1.32-.09-1.76.03-.57-.63-.97-1.82-1.01-2.2-.03-.19-.03-.38.06-.53.19-.31.53-.28.72-.57.09-.16.06-.31.06-.5,0-.06.16-.31-.03-.41-.06.09-.22.16-.38.13-.09-.03-.22-.06-.35-.03-.19.09-.22.31-.38.5-.09.09-.19.03-.16-.09.03-.22.16-.44.13-.66s-.22-.41-.44-.53c-.09-.06-.22-.16-.31-.19-.13-.03-.22,0-.22.06.06.03.09.09.09.19,0,.22-.22.31-.22.5,0,.28.19.57.22.72.03.13-.09.13-.16.09-.16-.09-.41-.22-.63-.22-.19,0-.31.16-.47.22-.06.03-.35.03-.31.16.16.03.28.13.35.28.03.13.06.22.19.28.19.13.57.09.72.13.13.03.25.09.28.35.03.16-.03.35-.13.5-.16.25-.22.5-.16.75.06-.09.13-.13.22-.13.16,0,.22.19.09.44-.09.22-.16.47-.06.75.03-.09.13-.16.22-.16.16,0,.22.16.13.44-.09.25-.13.5-.03.72.03-.09.13-.19.22-.19.16,0,.22.16.28.28.19.44.47.66,1.16.66-.25.47-2.26.16-3.08.06-.19-.03-.28-.06-.35-.22-.13-.31.19-.6,0-.94-.09-.16-.22-.22-.38-.31-.06-.03-.25-.28-.38-.19.06.13.03.22-.09.38-.09.09-.19.16-.19.28-.03.22.16.44.22.66.06.16-.03.22-.16.13-.19-.16-.47-.5-.79-.5-.22,0-.25.13-.41.19-.06.03-.38.06-.35.22.13.03.25.09.28.28.03.13.06.25.16.35.28.22.69.13.94.16.09.03.13.09.03.16-.22.13-.5.22-.63.44-.09.19-.03.38-.03.53,0,.06-.09.31.06.38.09-.13.19-.19.41-.16.13.03.22.06.35,0,.22-.09.22-.31.35-.47.06-.09.16-.19.31-.19.09,0,.19.03.25.09.16.16.16.5.63.57-.03-.06-.03-.13-.03-.19,0-.09.06-.19.16-.19.13,0,.19.06.28.22.13.22.28.28.5.31-.03-.06-.03-.13-.03-.19,0-.09.06-.16.16-.16.06,0,.16.03.25.19.16.25.25.35.5.38-.06-.16,0-.35.19-.35s.66.16,1.04.31c0,.91.6,1.89,1.48,2.48-.03-.16.06-.28.19-.28.35,0,.53.85,1.35,1.23-.03-.16.03-.25.16-.25.09,0,.22.06.28.09.72.38,1.48.88,1.85,1.19.75-.22,1.95-.94,2.77-1.76-.5-.16-1.85-1.16-2.33-1.67-.85-.88-1.07-1.79-1.07-2.45,0-.22.03-.44.09-.6.25.16.6.13.82-.06-.38-.31-.31-.91-.19-1.1.22.19.6.13.82-.06-.28-.19-.44-.66-.31-1.07.16.16.53.19.79,0-.31-.25-.47-.69-.38-1.16.16.19.41.22.63.16-.13-.25-.13-.69-.16-.97-.03-.41-.16-.85-.28-1.1-.44-.38-1.73-.88-2.55-.88-.09,0-.22.03-.31.03-.22.06-.38.13-.41.16-.13.19-.41.22-.69.31-.28,0-.82.13-1.01.25m1.26,6.32h-.09c-.06.57-.35,1.38-.57,1.7l.35-.28.22.28.22-.28.35.28c-.13-.31-.44-1.13-.47-1.7m6.22,2.67c.06-.09.16-.25.16-.25-.35-.53-.6-1.1-.57-1.76.06-.72.47-.94.79-.91.28,0,.47.22.5.53.25-.22.35-.44.38-.69,0-.19-.09-.47-.41-.57.57-.53.5-1.6-.06-2.01.09.75-.47,1.29-1.01,1.79-.69.66-.79,1.41-.66,2.2-.41-.79-.6-1.54-.53-2.26.06-.82.47-1.67,1.07-1.63.19,0,.41.13.47.28.28-.47.09-1.01-.38-1.07.47-1.13-.28-2.26-.91-2.52.16.35.25.69.22,1.07-.06,1.1-1.04,1.95-1.13,3.58-.09,1.76.88,3.27,1.92,4.43-.03.03.06-.09.16-.22m-4.12-.25h-.06c-.06.57-.35,1.38-.57,1.7l.35-.28.22.28.22-.28.31.28c-.13-.31-.41-1.16-.47-1.7m-1.63-7.11c.06-.09.09-.25.09-.35,0-.06,0-.16-.06-.22s-.22-.09-.41-.09-.35.03-.47.09c0,.03-.03.09-.06.19.31-.03.66.06.91.38m-43.26,12.2c5.16,0,9.37-4.21,9.37-9.4s-4.18-9.43-9.34-9.43-9.37,4.21-9.37,9.4,4.18,9.43,9.34,9.43m6.07-13.3c.03.28-.13.75-.22.88-.09.03-.38.06-.57.06-.13,0-.16.03-.25.16-.22.41-.44.75-.69,1.23-.06.57-.06,1.1-.09,1.73-.03.22,0,.53-.16.79-.19.25-.44.44-.6.57-.03.03-.09.09.06.03.09-.03.53-.25.63-.28.31-.09.66-.47,1.13,0,.22.22.6.44,1.01.72.16.09.25.09.44.28.16.16.25.47.35.66.25.44.28.72.28.82-.16.09-.79.09-1.04.03-.09-.16-.06-.38-.13-.5-.09-.22-.16-.31-.28-.41-.19-.13-.31-.28-.53-.38-.47-.25-.53-.31-.88-.16-.31.16-.82.6-1.32.88-.41.19-1.54,0-1.82-.28.09.31.72.66,1.19.88-.06.16-.22,1.04-.57,1.54-.03-.13-.09-.22-.22-.22-.31,0-.25.66-.57,1.01-.03-.09-.09-.22-.22-.22-.28,0-.25.63-.6.97-.03-.13-.13-.25-.25-.25s-.25.13-.38.25c-.41.44-.6.66-.97,1.07-1.29-.06-3.18-.97-3.84-1.76,1.23-1.29,2.29-2.61,2.83-2.99.25-.75,1.01-2.39,1.29-3.14-.03-.06-.06-.16-.13-.22-.19.09-.41.13-.5.09.09-.22.09-.53,0-.79-.13.06-.31.13-.47.06.09-.25.09-.53.03-.79h0c-.19.06-.35.09-.47.06.06-.28.16-.53.06-.91,0-.03-.03-.06-.03-.06-.22.13-1.04.25-1.23.19-.13-.09.6-.82,1.16-1.38-.57.25-1.29.5-2.39.72-.63.13-1.95.35-2.89.19-.16-.03-.13-.22.03-.22.5,0,1.16-.03,1.63-.16.13-.03.35-.16-.03-.22-.41-.06-1.13-.19-1.48-.31-.13-.03-.06-.19.06-.19.44.03.97.13,1.35.16.22,0,.31-.03.16-.16-.09-.09-.41-.28-.72-.47-.06-.03-.06-.13.03-.16.25-.03,1.26.57,1.92.75.16.03.28.06.41.03s.16-.09.16-.16c-.03-.16-.69-.47-1.01-.69-.13-.09,0-.19.16-.16.35.09,1.16.53,1.54.57.28.03.41-.03.38-.13-.03-.19-1.16-.72-1.41-.91-.06-.06.03-.13.09-.13.57.06,1.7.85,2.2.75.06,0,.13-.06.13-.13-.03-.22-.97-.69-1.19-.88-.13-.06.03-.16.19-.13.35.06.88.35,1.19.5.16.06.28.09.44.06.22-.03.38-.25.28-.69s-.5-.63-.79-.72c-.31-.09-.09-.25.19-.19.53.09.94.35,1.04.82,0,.06.03.19.03.28,0,.25.19.16.35-.06.28-.41.35-.82.31-1.1-.09-.5-.79-.69-.79-.79,0-.03.03-.06.06-.09.25-.03,1.01.25,1.1.85.06.31,0,.47-.06.79,0,.06.03.13.13.03.35-.35.63-.97.53-1.54-.09-.6-.72-.82-.75-.91,0-.03.03-.06.09-.06.25-.03.94.35,1.07,1.04.13.6-.16,1.82-1.98,2.8.75-.16.97-.16,1.07-.06.88-.25,1.45-.41,1.67-.38.25.38-.28.53-.28.82s.63-.19.5.25c-.19.35-.44.38-.69.47-.13.09-.69.47-.97.72.88.63,1.79,1.54,1.85,1.6.06.13.28.53.5,1.1,0,0,0,.03.03.03.13-.38.31-1.01.41-1.32.06-.28.06-.38.13-.53.06-.13.31-.38.53-.69.19-.28.5-.75.63-.91.19-.28.38-.22.72-.31.16.03.53,0,.69,0m-6.95.03s.13-.09.19-.16c.16-.09.35-.13.47-.16.06.09.03.25-.06.38-.13.13-.25.06-.35.03-.09-.03-.16-.03-.19-.03-.06.03-.09-.03-.06-.06m31.63,24.27c.09-.06.28-.31.19-.38-.13-.06-.41.22-.82.22s-.85-.25-1.01-.79c-.16-.63.13-1.07.57-1.48.16-.13.5-.35.63-.53-.03-.35.35-.88.35-1.19,0-.35.35-.47.66-.94.16-.25.28-.5.16-.63-.38.31-1.45,1.13-2.07.88-.28-.09-.31-.13-.57.06-.19.16-.47.22-.82.16-.57-.09-.94-.47-.94-.72-.35-.03-.72.63-.91.88-.25.35-.53.6-.88.85-.28.22-.69.66-1.04.44-.22-.16-.25-.72-.25-1.04.03-.53.09-.91.16-1.23.06-.28.16-.66.22-.94.09-.35.28-.72.41-1.04.06-.16.44-.85.44-1.1,0-.06-.03-.09-.13-.09-.16,0-.41.16-.66.31-.19.09-.38.19-.63.19-.28,0-.53-.13-.72-.47-.31-.57-.31-1.79-.47-2.17-.31.16-.57.09-.79-.19-.25-.35-.38-.72-.53-1.13-.06-.16-.19-.6-.25-.85-.19.38-.22.79-.31,1.1-.06.19-.13.47-.16.69-.06.25-.28.69-.53.69-.16,0-.22-.16-.25-.22-.09,0-.16.09-.22.25-.09.28-.09.5-.19.79-.13.53-.22,1.26-.88,1.35-.28.03-.63-.19-.88-.28-.57-.28-.35.5-.19.82.16.28.41.66.44,1.1.09.69.22,1.04.38,1.7.09.41.25.97.25,1.41,0,.53-.38.82-1.01.28-.19-.16-.57-.66-.91-.75-.47-.13-.94-.63-1.13-.88-.09,0-.35.16-.41.25-.53.47-1.1.6-2.01.44-.47-.09-.63-.19-1.04-.41-.35-.16-.66-.31-.88-.66-.06-.09-.09-.25-.25-.22-.16.03-.16.31-.16.41,0,.35.13.69.28.97.19.31.5.47.72.72.22.22.13.53-.25.41,0,.25.31.31.47.44.19.16.28.35.38.57.13.25.5.5.5.82,0,.25-.06.41-.28.53-.28.16-.57.09-.85-.03-.16.47.41.82.79,1.04.19.09.44.19.63.31s.44.35.41.5c.28.13.6,0,1.07.06.28.03.69.25.91.44s.38.44.38.75c0,1.1-1.85,1.41-1.85,1.41.79.28,1.76.82,2.61.6.16-.03.44-.19.63-.09.16.09.28.31.16.57.16.16.44.19.69.19.22,0,.44-.03.63-.13.22-.09.31-.28.5-.38.19-.13.38-.06.6-.16.31-.13.47-.5.85-.53l-.16,6.41h1.23c-.03-.66-.03-1.29-.06-1.95-.03-1.1-.06-2.2-.09-3.33,0-.38-.03-.72,0-1.1.35.09.5.53.79.72.35.22,1.19.72,1.57.35-.06-.16-.28-.57,0-.5.09,0,.25.16.35.19.19.09.38.13.63.13.31-.03.6-.06.94.03.22.03.38.06.66,0,.22-.03.38-.16.57-.22.35-.16.72-.06.97-.35-.28,0-.79-.19-.91-.28-.31-.22-.57-.5-.72-.85s-.25-.79.22-.91c.28-.06.22,0,.38-.19s.47-.47.72-.53c.28-.09,1.19-.06,1.29-.44-.03-.03-.09-.13-.09-.19,0-.09.09-.13.19-.19.16-.09.38-.16.57-.22.47-.19.85-.35,1.07-.53"/></g></svg>